# xmcd
#
# Track frame offsets: 
#        150
#        15920
#        34591
#        50468
#        74138
#        90132
#        110210
#        131750
#        145577
#        163067
#        183874
#        200126
#        216907
#        231902
#        246582
#        263341
#        280786
#        298244
#        310609
#        329178
#
# Disc length: 4597 seconds
#
# Revision: 1
# Processed by: cddbd v1.5.2PL0 Copyright (c) Steve Scherf et al.
# Submitted via: ExactAudioCopyFreeDBPlugin 1.0
#
DISCID=3211f314
DTITLE=Various Artist - Return To Soul City - Disc 3
DYEAR=2011
DGENRE=Soul
TTITLE0=Frankie Valli And The Four Seasons - December 1963 (Oh, What A
TTITLE0=Night)
TTITLE1=Candi Staton - Young Hearts Run Free
TTITLE2=Jimmy James And The Vagabonds - Now Is The Time
TTITLE3=George Benson - Love Ballad
TTITLE4=The Real Thing - Can't Get By Without You
TTITLE5=Barry White - Baby We Better Try To Get It Together
TTITLE6=The Chi-Lites - You Don't Have To Go
TTITLE7=The Manhattans - Hurt
TTITLE8=The Isley Brothers - Harvest For The World
TTITLE9=Earth Wind And Fire - Fantasy
TTITLE10=Heatwave - Always And Forever
TTITLE11=Biddu Orchestra - Summer Of 42
TTITLE12=The Delfonics - La-La Means I Love You
TTITLE13=The Drifters - You're More Than A Number In My Little Red Boo
TTITLE13=k
TTITLE14=The Stylistics - Sixteen Bars
TTITLE15=Rose Royce - Love Don't Live Here Anymore
TTITLE16=Gladys Knight And The Pips - Midnight Train To Georgia
TTITLE17=Jean Knight - Mr. Big Stuff
TTITLE18=The Blackbyrds - Walking In Rhythm
TTITLE19=Odyssey - Native New Yorker
EXTD=
EXTT0=
EXTT1=
EXTT2=
EXTT3=
EXTT4=
EXTT5=
EXTT6=
EXTT7=
EXTT8=
EXTT9=
EXTT10=
EXTT11=
EXTT12=
EXTT13=
EXTT14=
EXTT15=
EXTT16=
EXTT17=
EXTT18=
EXTT19=
PLAYORDER=
